<svg width="32" height="24" viewBox="0 0 32 24" fill="none" xmlns="http://www.w3.org/2000/svg">
<g clip-path="url(#clip0_1670_1519)">
<rect width="32" height="24" fill="white"/>
<path fill-rule="evenodd" clip-rule="evenodd" d="M0 0V24H32V0H0Z" fill="#FFB400"/>
<mask id="mask0_1670_1519" style="mask-type:luminance" maskUnits="userSpaceOnUse" x="0" y="0" width="32" height="24">
<path fill-rule="evenodd" clip-rule="evenodd" d="M0 0V24H32V0H0Z" fill="white"/>
</mask>
<g mask="url(#mask0_1670_1519)">
<path fill-rule="evenodd" clip-rule="evenodd" d="M0 0V6H32V0H0Z" fill="#C51918"/>
<path fill-rule="evenodd" clip-rule="evenodd" d="M0 18V24H32V18H0Z" fill="#C51918"/>
<rect x="5.00806" y="10.272" width="1.12" height="5.824" fill="#F1F9FF"/>
<path d="M6.57568 9.82358H6.23975V10.2718H4.896V9.82358H4.56006V9.26401H6.57568V9.82358Z" fill="#C88A02"/>
<path fill-rule="evenodd" clip-rule="evenodd" d="M6.24006 16.432H6.57606V16.992H4.56006V16.432H4.89606V15.984H6.24006V16.432Z" fill="#C88A02"/>
<path fill-rule="evenodd" clip-rule="evenodd" d="M5.56806 9.376C5.81179 9.376 5.83656 9.28423 5.98036 9.14715C6.09201 9.04072 6.35206 8.90871 6.35206 8.76C6.35206 8.4198 6.00105 8.144 5.56806 8.144C5.13507 8.144 4.78406 8.4198 4.78406 8.76C4.78406 8.92567 4.96314 9.03645 5.09854 9.14715C5.2412 9.26379 5.34592 9.376 5.56806 9.376Z" fill="#AD1619"/>
<path fill-rule="evenodd" clip-rule="evenodd" d="M4.56006 16.992H6.57606V17.888C6.57606 17.888 6.32406 17.776 6.07206 17.776C5.82006 17.776 5.56806 17.888 5.56806 17.888C5.56806 17.888 5.31606 17.776 5.06406 17.776C4.81206 17.776 4.56006 17.888 4.56006 17.888V16.992Z" fill="#005BBF"/>
<mask id="mask1_1670_1519" style="mask-type:luminance" maskUnits="userSpaceOnUse" x="4" y="16" width="3" height="2">
<path fill-rule="evenodd" clip-rule="evenodd" d="M4.56006 16.992H6.57606V17.888C6.57606 17.888 6.32406 17.776 6.07206 17.776C5.82006 17.776 5.56806 17.888 5.56806 17.888C5.56806 17.888 5.31606 17.776 5.06406 17.776C4.81206 17.776 4.56006 17.888 4.56006 17.888V16.992Z" fill="white"/>
</mask>
<g mask="url(#mask1_1670_1519)">
<path d="M4.54181 17.7119L4.4978 17.6046C4.67938 17.5238 4.86161 17.4833 5.04411 17.4833C5.16202 17.4833 5.22359 17.4997 5.32826 17.5463C5.4202 17.5872 5.46786 17.6 5.56841 17.6C5.66896 17.6 5.71662 17.5872 5.80856 17.5463C5.91323 17.4997 5.9748 17.4833 6.09271 17.4833C6.27521 17.4833 6.45744 17.5238 6.63902 17.6046L6.59501 17.7119C6.42706 17.6372 6.25975 17.6 6.09271 17.6C5.99216 17.6 5.9445 17.6127 5.85256 17.6536C5.74789 17.7002 5.68632 17.7166 5.56841 17.7166C5.4505 17.7166 5.38893 17.7002 5.28426 17.6536C5.19232 17.6127 5.14466 17.6 5.04411 17.6C4.87707 17.6 4.70976 17.6372 4.54181 17.7119Z" fill="white"/>
<path d="M4.54181 17.3759L4.4978 17.2687C4.67938 17.1878 4.86161 17.1473 5.04411 17.1473C5.16202 17.1473 5.22359 17.1637 5.32826 17.2103C5.4202 17.2512 5.46786 17.264 5.56841 17.264C5.66896 17.264 5.71662 17.2512 5.80856 17.2103C5.91323 17.1637 5.9748 17.1473 6.09271 17.1473C6.27521 17.1473 6.45744 17.1878 6.63902 17.2687L6.59501 17.3759C6.42706 17.3012 6.25975 17.264 6.09271 17.264C5.99216 17.264 5.9445 17.2767 5.85256 17.3176C5.74789 17.3642 5.68632 17.3806 5.56841 17.3806C5.4505 17.3806 5.38893 17.3642 5.28426 17.3176C5.19232 17.2767 5.14466 17.264 5.04411 17.264C4.87707 17.264 4.70976 17.3012 4.54181 17.3759Z" fill="white"/>
</g>
<rect x="15.984" y="10.272" width="1.12" height="5.824" fill="#F1F9FF"/>
<path d="M17.5516 9.82358H17.2157V10.2718H15.8719V9.82358H15.536V9.26401H17.5516V9.82358Z" fill="#C88A02"/>
<path fill-rule="evenodd" clip-rule="evenodd" d="M17.216 16.432H17.552V16.992H15.536V16.432H15.872V15.984H17.216V16.432Z" fill="#C88A02"/>
<path fill-rule="evenodd" clip-rule="evenodd" d="M16.544 9.376C16.7877 9.376 16.8125 9.28423 16.9563 9.14715C17.068 9.04072 17.328 8.90871 17.328 8.76C17.328 8.4198 16.977 8.144 16.544 8.144C16.111 8.144 15.76 8.4198 15.76 8.76C15.76 8.92567 15.9391 9.03645 16.0745 9.14715C16.2171 9.26379 16.3219 9.376 16.544 9.376Z" fill="#AD1619"/>
<path fill-rule="evenodd" clip-rule="evenodd" d="M15.536 16.992H17.552V17.888C17.552 17.888 17.3 17.776 17.048 17.776C16.796 17.776 16.544 17.888 16.544 17.888C16.544 17.888 16.292 17.776 16.04 17.776C15.788 17.776 15.536 17.888 15.536 17.888V16.992Z" fill="#005BBF"/>
<mask id="mask2_1670_1519" style="mask-type:luminance" maskUnits="userSpaceOnUse" x="15" y="16" width="3" height="2">
<path fill-rule="evenodd" clip-rule="evenodd" d="M15.536 16.992H17.552V17.888C17.552 17.888 17.3 17.776 17.048 17.776C16.796 17.776 16.544 17.888 16.544 17.888C16.544 17.888 16.292 17.776 16.04 17.776C15.788 17.776 15.536 17.888 15.536 17.888V16.992Z" fill="white"/>
</mask>
<g mask="url(#mask2_1670_1519)">
<path d="M15.5178 17.7119L15.4738 17.6046C15.6553 17.5238 15.8376 17.4833 16.0201 17.4833C16.138 17.4833 16.1995 17.4997 16.3042 17.5463C16.3962 17.5872 16.4438 17.6 16.5444 17.6C16.6449 17.6 16.6926 17.5872 16.7845 17.5463C16.8892 17.4997 16.9508 17.4833 17.0687 17.4833C17.2512 17.4833 17.4334 17.5238 17.615 17.6046L17.571 17.7119C17.403 17.6372 17.2357 17.6 17.0687 17.6C16.9681 17.6 16.9205 17.6127 16.8285 17.6536C16.7238 17.7002 16.6623 17.7166 16.5444 17.7166C16.4265 17.7166 16.3649 17.7002 16.2602 17.6536C16.1683 17.6127 16.1206 17.6 16.0201 17.6C15.853 17.6 15.6857 17.6372 15.5178 17.7119Z" fill="white"/>
<path d="M15.5178 17.3759L15.4738 17.2687C15.6553 17.1878 15.8376 17.1473 16.0201 17.1473C16.138 17.1473 16.1995 17.1637 16.3042 17.2103C16.3962 17.2512 16.4438 17.264 16.5444 17.264C16.6449 17.264 16.6926 17.2512 16.7845 17.2103C16.8892 17.1637 16.9508 17.1473 17.0687 17.1473C17.2512 17.1473 17.4334 17.1878 17.615 17.2687L17.571 17.3759C17.403 17.3012 17.2357 17.264 17.0687 17.264C16.9681 17.264 16.9205 17.2767 16.8285 17.3176C16.7238 17.3642 16.6623 17.3806 16.5444 17.3806C16.4265 17.3806 16.3649 17.3642 16.2602 17.3176C16.1683 17.2767 16.1206 17.264 16.0201 17.264C15.853 17.264 15.6857 17.3012 15.5178 17.3759Z" fill="white"/>
</g>
<path d="M4.38784 11.8721C5.1379 11.3556 7.14599 11.3088 8.02749 11.7637L7.61635 12.5596C7.18371 12.3366 6.20113 12.2948 5.51284 12.4092C5.61742 12.4275 5.73495 12.4472 5.86635 12.4678C5.94863 12.4807 6.23677 12.5248 6.25991 12.5283C6.53468 12.5711 6.72251 12.6252 6.86147 12.7198C7.14516 12.913 7.18701 13.2618 6.98452 13.5186C6.89909 13.6268 6.7872 13.7077 6.61831 13.8057C6.56405 13.8372 6.50531 13.8693 6.4269 13.9112C6.4109 13.9197 6.27474 13.9921 6.23452 14.0137C6.07307 14.1004 5.96689 14.1632 5.88784 14.2207C5.76403 14.3108 5.63647 14.384 5.49233 14.4532C5.41527 14.4901 5.19723 14.5853 5.1935 14.5869C5.18911 14.5889 5.18489 14.591 5.18081 14.5928C5.25839 14.6979 5.30283 14.8267 5.30288 14.9756C5.30285 15.2121 5.18935 15.4349 4.98745 15.6797L4.29995 15.1123L4.23452 15.0928L4.19839 14.8057C4.13084 14.2765 4.35652 13.9835 4.82241 13.7715C4.83477 13.7659 5.04557 13.6743 5.10561 13.6455C5.20393 13.5984 5.28482 13.5511 5.3605 13.4961C5.43519 13.4418 5.51575 13.3901 5.61245 13.334C5.0357 13.2414 4.72367 13.1733 4.48452 13.0703C3.91219 12.8238 3.83802 12.251 4.38784 11.8721ZM13.9806 11.7637C14.8619 11.3087 16.8701 11.3555 17.6203 11.8721C18.1704 12.251 18.0969 12.8237 17.5246 13.0703C17.2854 13.1734 16.9734 13.2413 16.3966 13.334C16.4932 13.3901 16.573 13.4419 16.6476 13.4961C16.7234 13.5512 16.805 13.5983 16.9035 13.6455C16.9641 13.6746 17.1738 13.7661 17.1857 13.7715C17.6519 13.9835 17.8782 14.2764 17.8107 14.8057L17.7746 15.0928L17.7082 15.1123L17.0207 15.6797C16.8188 15.435 16.7062 15.2121 16.7062 14.9756C16.7062 14.8266 16.7505 14.698 16.8283 14.5928C16.8241 14.5909 16.8191 14.589 16.8146 14.5869C16.8073 14.5838 16.5918 14.4896 16.5158 14.4532C16.3717 14.3841 16.245 14.3107 16.1212 14.2207C16.0422 14.1632 15.936 14.1004 15.7746 14.0137C15.735 13.9924 15.5993 13.9203 15.5822 13.9112C15.5037 13.8693 15.445 13.8372 15.3908 13.8057C15.2218 13.7077 15.11 13.6268 15.0246 13.5186C14.822 13.2618 14.8638 12.913 15.1476 12.7198C15.2866 12.6252 15.4743 12.5711 15.7492 12.5283C15.7729 12.5247 16.061 12.4806 16.1427 12.4678C16.2742 12.4472 16.3916 12.4275 16.4962 12.4092C15.8077 12.2946 14.8243 12.3363 14.3917 12.5596L13.9806 11.7637Z" fill="#AD1619"/>
<path d="M5.92341 12.4L6.254 12.4684V12.9611C5.9019 13.2421 5.00806 13.7156 5.00806 13.7156V12.4H5.92341Z" fill="#F1F9FF"/>
<path d="M16.3146 12.4L15.984 12.4684V12.9611C16.3361 13.2421 17.23 13.7156 17.23 13.7156V12.4H16.3146Z" fill="#F1F9FF"/>
<path d="M9.26172 6.42207C9.26172 6.42207 10.2 6.01664 11.1309 6.10762C11.1308 6.10792 11.13 6.10853 11.1299 6.10957C11.7494 6.04955 12.3621 6.15446 12.9668 6.42207C13.5971 6.42218 14.2004 6.62885 14.7764 7.04219V7.20625L13.6465 8.34004C13.4206 8.96614 13.0177 8.99942 12.7041 9.10372C12.5988 9.13784 11.1532 9.17819 11.127 9.17891C11.127 9.17891 11.127 9.17742 11.127 9.175C8.8997 9.43186 8.58203 8.34004 8.58203 8.34004L7.45215 7.20625V7.04219C7.45215 7.04219 8.31611 6.42219 9.26172 6.42207Z" fill="#AD1619"/>
<path d="M12.8694 7.50141C12.8942 7.78018 12.9706 7.91082 13.0833 7.92915C13.2364 7.95403 13.3526 7.94275 13.4338 7.89887L13.5989 7.80903V7.96137C13.6508 7.96689 13.7406 7.95762 13.8625 7.9311L13.8977 8.09321L14.7239 7.31684L14.8 7.39887L13.7727 8.36469C13.6228 8.64072 13.5471 8.82319 13.5471 8.89887C13.5471 9.01432 13.2466 9.08239 12.6604 9.15278C12.2012 9.2079 11.6593 9.24296 11.2161 9.24848V9.25141C11.1974 9.25141 11.1785 9.24958 11.1594 9.24946C11.1407 9.24958 11.1221 9.25141 11.1038 9.25141V9.24848C10.6605 9.24295 10.1186 9.2079 9.65942 9.15278C9.0732 9.08239 8.77274 9.01432 8.77271 8.89887C8.77271 8.88293 8.76767 8.86262 8.76099 8.83735C8.70519 8.76272 8.66484 8.64636 8.63794 8.5395C8.61147 8.48636 8.58138 8.42779 8.54712 8.36469L8.31958 8.15083C8.31765 8.15041 8.31566 8.15027 8.31372 8.14985V8.14594L7.51978 7.39887L7.59692 7.31684L8.34204 8.01801L8.36157 7.9311C8.48326 7.95754 8.57231 7.96684 8.62427 7.96137V7.80903L8.78931 7.89887C8.87062 7.94287 8.98751 7.9541 9.14087 7.92915C9.25349 7.91079 9.32989 7.78014 9.35474 7.50141L9.40454 6.93891L9.57251 7.47797C9.64867 7.72203 9.76551 7.82954 9.93091 7.82954C10.0922 7.82946 10.1571 7.77063 10.1643 7.62153L10.1848 7.1977L10.3762 7.57661C10.4451 7.71244 10.5401 7.77376 10.675 7.77387C10.8685 7.77387 10.9983 7.61286 10.9983 7.35981H11.2258C11.2258 7.61272 11.3548 7.7737 11.5481 7.77387C11.6833 7.77387 11.7789 7.71264 11.8479 7.57661L12.0393 7.1977L12.0598 7.62153C12.067 7.77071 12.1317 7.82954 12.2932 7.82954C12.4586 7.82953 12.5745 7.72203 12.6506 7.47797L12.8196 6.93891L12.8694 7.50141ZM11.0989 8.66059C10.807 8.67917 9.19136 8.78644 8.94556 8.90083C8.94138 8.90278 8.93597 8.90221 8.93188 8.90376C8.96819 8.91723 9.0178 8.93344 9.08032 8.9477C9.22433 8.98054 9.42928 9.01326 9.67212 9.04243C10.1465 9.09939 10.7109 9.13516 11.1594 9.13813C11.6081 9.13521 12.1729 9.09943 12.6477 9.04243C12.8905 9.01327 13.0955 8.98054 13.2395 8.9477C13.3128 8.93098 13.3696 8.91438 13.4065 8.89887C13.4196 8.89336 13.4292 8.88753 13.4358 8.88325C13.437 8.86533 13.4421 8.84541 13.4475 8.8227C13.397 8.89759 13.3342 8.93875 13.2532 8.90083C13.0084 8.78631 11.3895 8.67908 11.0989 8.66059ZM12.7141 7.84711C12.625 7.96063 12.5109 8.0252 12.3743 8.04438C13.0872 8.1445 13.5916 8.28592 13.6077 8.29047C13.6077 8.29047 13.5946 8.39912 13.5637 8.52583C13.596 8.45942 13.6344 8.38499 13.679 8.30317L13.6897 8.2895L13.8215 8.1645C13.6366 8.1975 13.5035 8.19662 13.4329 8.13911C13.323 8.17107 13.1942 8.17475 13.0471 8.15083C12.8899 8.12524 12.78 8.0206 12.7141 7.84711ZM9.50903 7.84711C9.44315 8.02043 9.33411 8.12522 9.177 8.15083C9.02992 8.17476 8.90112 8.17101 8.79126 8.13911C8.73593 8.18416 8.64183 8.19404 8.51489 8.1811L8.62231 8.28168C8.74539 8.2486 9.21158 8.13033 9.83521 8.0434C9.70484 8.02156 9.59509 7.95676 9.50903 7.84711ZM11.9026 7.86958C11.8457 7.91978 11.78 7.95323 11.7073 7.97407C11.8255 7.98294 11.9411 7.99204 12.053 8.00434C11.9898 7.97334 11.9389 7.92803 11.9026 7.86958ZM10.3206 7.86958C10.2853 7.92626 10.2366 7.96954 10.176 8.00043C10.2843 7.98886 10.396 7.98044 10.51 7.97211C10.4399 7.95102 10.3757 7.91831 10.3206 7.86958ZM11.1116 7.75825C11.0551 7.84584 10.98 7.9131 10.887 7.95356C10.9423 7.95183 10.998 7.94931 11.054 7.94868V7.94672C11.0689 7.94672 11.084 7.94762 11.0989 7.9477C11.1138 7.94762 11.1288 7.94672 11.1438 7.94672V7.94868C11.2094 7.94941 11.2744 7.9523 11.3391 7.95454C11.245 7.91415 11.1685 7.8467 11.1116 7.75825Z" fill="#C88A02"/>
<path fill-rule="evenodd" clip-rule="evenodd" d="M11.1124 5.34707C11.2979 5.34707 11.4484 5.19664 11.4484 5.01107C11.4484 4.8255 11.2979 4.67507 11.1124 4.67507C10.9268 4.67507 10.7764 4.8255 10.7764 5.01107C10.7764 5.19664 10.9268 5.34707 11.1124 5.34707Z" fill="#005BBF"/>
<path d="M7.78548 7.26508C7.87412 7.23799 7.98238 7.33522 8.02767 7.48286C8.03928 7.52082 8.04477 7.55885 8.04622 7.59418C8.07707 7.55778 8.11682 7.52142 8.16732 7.49457C8.30381 7.42206 8.44995 7.43026 8.49349 7.51215C8.53657 7.59408 8.46085 7.71897 8.32454 7.79145C8.18831 7.86374 8.04312 7.85635 7.99935 7.77485C7.99824 7.77277 7.99737 7.77014 7.99642 7.76801C7.98288 7.78264 7.96795 7.79453 7.94954 7.80024C7.86081 7.82737 7.75159 7.72937 7.70638 7.58149C7.6612 7.43363 7.69677 7.29221 7.78548 7.26508ZM14.3597 7.22993C14.4484 7.25705 14.484 7.39943 14.4388 7.54731C14.3936 7.695 14.2853 7.79296 14.1966 7.76606C14.178 7.76037 14.1624 7.74863 14.1488 7.73383C14.1478 7.73588 14.1479 7.73867 14.1468 7.74067C14.1031 7.82236 13.957 7.82973 13.8206 7.75727C13.6841 7.68467 13.6081 7.55892 13.6517 7.477C13.6953 7.39524 13.8415 7.38803 13.9779 7.4604C14.0276 7.48682 14.0673 7.5223 14.098 7.55805C14.0996 7.52323 14.1061 7.48601 14.1175 7.44868C14.1627 7.30123 14.2711 7.20338 14.3597 7.22993ZM9.32552 6.80219C9.4165 6.78462 9.51373 6.89281 9.54329 7.04438C9.55402 7.09955 9.55074 7.15236 9.54232 7.19868C9.57709 7.18938 9.61605 7.18403 9.65657 7.18403C9.81083 7.18416 9.93555 7.25946 9.93587 7.352C9.93587 7.4447 9.81103 7.51984 9.65657 7.51997C9.50194 7.51997 9.3763 7.44478 9.3763 7.352C9.37631 7.35002 9.37716 7.3481 9.37728 7.34614C9.37629 7.34581 9.37533 7.34551 9.37435 7.34516C9.37451 7.34747 9.37629 7.34967 9.3763 7.352C9.3763 7.44478 9.25067 7.51997 9.09603 7.51997C8.94146 7.51992 8.81575 7.44475 8.81575 7.352C8.81608 7.25941 8.94166 7.18408 9.09603 7.18403C9.15273 7.18403 9.20428 7.1979 9.24837 7.21528C9.23321 7.18357 9.22173 7.14753 9.21419 7.10883C9.18469 6.95703 9.23444 6.8199 9.32552 6.80219ZM12.7806 6.7602C12.8732 6.75558 12.9551 6.8774 12.9632 7.03168C12.9661 7.08783 12.9546 7.13935 12.9398 7.18403C12.9756 7.17963 13.0148 7.18033 13.055 7.18598C13.208 7.20758 13.3218 7.29924 13.3089 7.39106C13.2959 7.48282 13.1611 7.53948 13.0081 7.51801C12.855 7.49649 12.7413 7.40482 12.7542 7.31293C12.7546 7.31065 12.7547 7.30834 12.7552 7.3061L12.7533 7.30512C12.7531 7.30768 12.7546 7.31037 12.7542 7.31293C12.7413 7.40482 12.6066 7.46141 12.4534 7.43989C12.3003 7.41835 12.1866 7.32668 12.1995 7.23481C12.2126 7.14303 12.3473 7.08635 12.5003 7.10786C12.556 7.1157 12.6048 7.13558 12.6458 7.15864C12.6354 7.12537 12.6293 7.08827 12.6273 7.04926C12.6192 6.89483 12.6879 6.76506 12.7806 6.7602ZM11.0052 6.68989C11.0963 6.67218 11.1945 6.78125 11.224 6.93305C11.2346 6.98796 11.2304 7.04025 11.222 7.08637C11.2568 7.07704 11.2957 7.0727 11.3363 7.0727C11.4909 7.07273 11.6165 7.1479 11.6165 7.24067C11.6163 7.33329 11.4907 7.40861 11.3363 7.40864C11.1818 7.40864 11.0563 7.33331 11.056 7.24067C11.056 7.23847 11.0568 7.23601 11.057 7.23383C11.056 7.2335 11.055 7.23321 11.054 7.23286C11.0542 7.23539 11.056 7.23811 11.056 7.24067C11.0557 7.33331 10.9302 7.40864 10.7757 7.40864C10.6215 7.40849 10.4967 7.33322 10.4964 7.24067C10.4964 7.14798 10.6213 7.07285 10.7757 7.0727C10.8326 7.0727 10.8848 7.08548 10.929 7.10297C10.9138 7.07122 10.9014 7.03529 10.8939 6.99653C10.8645 6.84487 10.9142 6.70768 11.0052 6.68989Z" fill="#C88A02"/>
<path d="M11.2197 4.22406H11.373V4.45746H11.2197V4.92426H11.373V5.15765H10.832V4.92426H10.9873V4.45746H10.832V4.22406H10.9873V4.0766H11.2197V4.22406Z" fill="#C88A02"/>
<rect x="10.9441" y="5.344" width="0.448" height="1.456" fill="#C88A02"/>
<path d="M9.14067 5.58784L9.13872 5.69983C8.14562 5.68249 7.57596 5.82742 7.43136 6.11627C7.28186 6.41489 7.30966 6.77791 7.51914 7.20914L7.4184 7.25808C7.19489 6.79798 7.16437 6.39939 7.33121 6.06613C7.50294 5.72309 8.10556 5.56977 9.14067 5.58784Z" fill="white"/>
<path d="M9.33286 6.58099L9.27544 6.67715C9.05917 6.54802 8.95093 6.32764 8.95093 6.02394C8.95093 5.58746 9.17577 5.3315 9.67312 5.15635C9.99055 5.04456 10.4242 5.09039 10.9752 5.29017L10.937 5.39546C10.408 5.20368 9.99874 5.16041 9.71033 5.26199C9.25414 5.42265 9.06293 5.64032 9.06293 6.02394C9.06293 6.29045 9.15283 6.4735 9.33286 6.58099Z" fill="white"/>
<path d="M7.66018 7.03739L7.44884 7.11162C7.22956 6.48727 7.29218 6.06326 7.66687 5.88035C7.99704 5.71918 8.47822 5.65359 9.11282 5.67931L9.10375 5.90313C8.50291 5.87878 8.05591 5.93971 7.76513 6.08165C7.51889 6.20185 7.47384 6.50684 7.66018 7.03739Z" fill="#C88A02"/>
<path d="M10.1294 5.4387C9.61727 5.4387 9.40696 5.56343 9.28681 5.93172C9.21024 6.16642 9.2845 6.36674 9.52529 6.55372L9.3879 6.73064C9.07616 6.48856 8.96625 6.19208 9.07386 5.86224C9.22698 5.3929 9.52744 5.2147 10.1294 5.2147C10.524 5.2147 10.8313 5.31836 11.0453 5.52932L11.0787 5.56222V6.64218H10.8547V5.65796C10.6876 5.51278 10.4475 5.4387 10.1294 5.4387Z" fill="#C88A02"/>
<path d="M13.0491 5.69984L13.0511 5.81183C14.0442 5.79449 14.6139 5.93942 14.7585 6.22827C14.908 6.52689 14.8802 6.88991 14.6707 7.32114L14.7714 7.37008C14.9949 6.90998 15.0254 6.51139 14.8586 6.17813C14.6869 5.83509 14.0843 5.68177 13.0491 5.69984Z" fill="white"/>
<path d="M12.6984 6.60427L12.7558 6.70043C12.9721 6.5713 13.0803 6.35093 13.0803 6.04722C13.0803 5.61074 12.8555 5.35479 12.3581 5.17963C12.0407 5.06784 11.6071 5.11368 11.0561 5.31345L11.0943 5.41875C11.6232 5.22696 12.0325 5.1837 12.3209 5.28527C12.7771 5.44593 12.9683 5.6636 12.9683 6.04722C12.9683 6.31374 12.8784 6.49678 12.6984 6.60427Z" fill="white"/>
<path d="M14.5993 7.14939L14.8107 7.22362C15.03 6.59927 14.9673 6.17526 14.5926 5.99235C14.2625 5.83118 13.7813 5.76559 13.1467 5.79131L13.1558 6.01513C13.7566 5.99078 14.2036 6.05171 14.4944 6.19365C14.7406 6.31385 14.7857 6.61884 14.5993 7.14939Z" fill="#C88A02"/>
<path d="M12.1174 5.456C12.6296 5.456 12.8399 5.58074 12.96 5.94902C13.0366 6.18372 12.9623 6.38404 12.7215 6.57102L12.8589 6.74794C13.1707 6.50586 13.2806 6.20938 13.173 5.87955C13.0198 5.4102 12.7194 5.232 12.1174 5.232C11.7229 5.232 11.4155 5.33566 11.2015 5.54662L11.1681 5.57952V6.65948H11.3921V5.67526C11.5593 5.53008 11.7993 5.456 12.1174 5.456Z" fill="#C88A02"/>
<path opacity="0.3" fill-rule="evenodd" clip-rule="evenodd" d="M7.47205 9.264H14.752V15.8048C14.752 15.8048 14.2113 18 11.112 18C8.01282 18 7.47205 15.747 7.47205 15.747V9.264Z" fill="#E1E5E8"/>
<mask id="mask3_1670_1519" style="mask-type:luminance" maskUnits="userSpaceOnUse" x="7" y="9" width="8" height="9">
<path fill-rule="evenodd" clip-rule="evenodd" d="M7.47205 9.264H14.752V15.8048C14.752 15.8048 14.2113 18 11.112 18C8.01282 18 7.47205 15.747 7.47205 15.747V9.264Z" fill="white"/>
</mask>
<g mask="url(#mask3_1670_1519)">
<rect x="7.47205" y="13.296" width="3.696" height="4.368" fill="#FFC034"/>
<rect x="7.92004" y="13.52" width="0.448" height="4.144" fill="#AD1619"/>
<rect x="9.48804" y="13.52" width="0.448" height="4.144" fill="#AD1619"/>
<rect x="8.7041" y="13.52" width="0.448" height="4.144" fill="#AD1619"/>
<rect x="10.2721" y="13.52" width="0.448" height="4.144" fill="#AD1619"/>
<rect x="7.47205" y="9.152" width="3.696" height="4.256" fill="#AD1619"/>
<rect x="11.056" y="13.184" width="3.696" height="4.256" fill="#AD1619"/>
<rect x="11.056" y="9.264" width="3.92" height="4.144" fill="#F1F9FF"/>
<path d="M9.37622 10.5287H9.59985V10.0648H9.93579V10.5287H10.2717V11.1098H9.93579V12.1557H10.2717V12.7357H8.2561V12.1557H8.59204V11.1098H8.2561V10.5287H8.47974V10.0648H8.81567V10.5287H9.04028V9.6H9.37622V10.5287Z" fill="#C88A02"/>
<path d="M12.6261 9.8046C12.8926 9.69815 13.2032 9.81021 13.4669 10.1864C13.6172 10.4009 13.6173 10.6377 13.4709 10.8251C13.3969 10.9196 13.2951 10.9913 13.1711 11.0497C13.265 11.1824 13.3216 11.2569 13.4181 11.3661C13.4639 11.4179 13.5039 11.4675 13.5402 11.5136C13.5751 11.4937 13.6193 11.4773 13.674 11.4608C13.6826 11.4582 13.6919 11.4557 13.7013 11.453C13.7359 11.4434 13.7609 11.4355 13.7814 11.4286C13.8738 11.3976 13.8706 11.4081 13.8703 11.1396C13.8702 11.1189 13.8703 11.118 13.8703 11.0966C13.8703 11.0292 13.8679 10.9715 13.8625 10.8398C13.8622 10.8337 13.8627 10.8329 13.8625 10.8271C13.8423 10.3429 13.8599 10.1572 14.008 10.0243L14.1574 10.1913C14.0856 10.2561 14.0697 10.4229 14.0861 10.8173C14.0863 10.8235 14.0858 10.8245 14.0861 10.831C14.0917 10.9657 14.0939 11.025 14.0939 11.0966C14.0939 11.1176 14.0939 11.1184 14.0939 11.1386C14.0944 11.4948 14.0672 11.5695 13.8527 11.6415C13.8278 11.6499 13.7989 11.6583 13.7609 11.6689C13.753 11.671 13.7455 11.6736 13.7384 11.6757C13.7072 11.6851 13.6846 11.6896 13.6691 11.6962C13.6901 11.7318 13.7078 11.7653 13.7209 11.7968C13.7809 11.9424 13.7615 12.0806 13.6505 12.1591C13.6509 12.161 13.6512 12.1633 13.6515 12.1649C13.6523 12.1688 13.6534 12.1731 13.6564 12.1845C13.6693 12.2373 13.6669 12.2915 13.6427 12.5058C13.6291 12.6269 13.6291 12.7068 13.6369 12.7284C13.6294 12.7077 13.6019 12.6844 13.5636 12.6845L13.5568 12.6786C13.5549 12.6807 13.5527 12.6826 13.5509 12.6845H13.5636L13.5714 12.6913C13.5673 12.692 13.5633 12.6934 13.5597 12.6942L13.549 12.6845C13.5396 12.6944 13.5331 12.7023 13.5285 12.706L13.5304 12.705C13.5368 12.7012 13.5464 12.6973 13.5597 12.6942L13.7082 12.829C13.614 12.9329 13.4788 12.9499 13.4259 12.8036C13.4026 12.7385 13.4026 12.6357 13.4201 12.4804C13.4405 12.2988 13.4424 12.2545 13.4386 12.2382C13.4364 12.2298 13.4338 12.2202 13.4318 12.2108C13.4238 12.173 13.4197 12.1223 13.4191 12.039L13.3312 12.2314C13.2315 12.1852 13.18 12.1433 13.1671 12.0702C13.1627 12.0444 13.1653 12.021 13.172 11.997C13.1752 11.9858 13.1788 11.9739 13.1837 11.9608C13.1954 11.9289 13.1925 11.91 13.1418 11.8407C13.1293 11.8238 13.1171 11.8053 13.1037 11.786C13.0994 11.7848 13.0952 11.7834 13.091 11.7821C13.0383 11.7667 12.9929 11.7552 12.9562 11.748C12.9683 11.7796 12.9829 11.8142 13.0002 11.8534C13.0026 11.8589 13.0618 11.9901 13.0763 12.0253C13.1062 12.0978 13.122 12.1521 13.1252 12.206C13.1382 12.4352 12.9529 12.4905 12.7218 12.4228C12.5494 12.3721 12.4612 12.3518 12.4367 12.3524C12.5131 12.3503 12.5549 12.2665 12.55 12.2353L12.2179 12.287C12.1957 12.1443 12.2577 12.0213 12.4279 12.0165C12.4923 12.0148 12.5747 12.031 12.7306 12.0751C12.72 12.0509 12.7074 12.022 12.6925 11.9882C12.6554 11.9037 12.6283 11.836 12.6076 11.7675C12.5494 11.5753 12.6471 11.4244 12.8332 11.4052C12.8427 11.4042 12.8525 11.4046 12.8625 11.4042C12.8224 11.3371 12.7803 11.2644 12.7355 11.1864C12.7106 11.1913 12.6877 11.1978 12.6662 11.2011L12.6525 11.1142C12.5593 11.2181 12.4657 11.3147 12.3732 11.3876C12.1502 11.5634 11.9425 11.6222 11.7863 11.4472L12.0373 11.2235C12.0289 11.2142 12.0156 11.2111 12.0236 11.2089C12.0567 11.1995 12.1064 11.1702 12.1652 11.1239C12.2282 11.0742 12.295 11.0077 12.3634 10.9345C12.2692 10.8718 12.1766 10.7855 12.0871 10.6767C12.0197 10.5948 11.9609 10.5401 11.9054 10.5019C11.8777 10.4828 11.795 10.4374 11.7834 10.4296C11.6449 10.3365 11.6526 10.2481 11.7365 10.037L12.049 10.161C12.0451 10.1709 12.0414 10.1802 12.0382 10.1884C12.0583 10.2003 12.0796 10.2133 12.0959 10.2245C12.1779 10.281 12.2597 10.3579 12.3468 10.4638C12.4328 10.5683 12.5123 10.6379 12.5861 10.6776L12.5822 10.6474C12.597 10.6451 12.6277 10.6389 12.6681 10.6298C12.7356 10.6145 12.8029 10.595 12.8634 10.5722C12.9259 10.5486 12.9748 10.5237 13.0041 10.5028C12.9289 10.3967 12.8689 10.3451 12.8273 10.33C12.8213 10.3278 12.8266 10.3281 12.8341 10.3251C12.8421 10.3219 12.8518 10.3159 12.8644 10.3066L12.5314 9.85636C12.5554 9.83865 12.5869 9.82028 12.6261 9.8046ZM13.4113 11.9267C13.4124 11.957 13.4103 11.9867 13.4015 12.0165C13.4068 12.0192 13.4126 12.0222 13.4191 12.0253C13.4191 12.0221 13.4191 12.0188 13.4191 12.0155C13.4191 11.9906 13.4178 11.9671 13.4171 11.9413C13.4159 11.939 13.4143 11.934 13.4113 11.9267Z" fill="#C37C9C"/>
<path d="M12.9789 9.79502L13.2082 9.54948L13.6898 9.99931L13.4604 10.2448L12.9789 9.79502Z" fill="#C88A02"/>
<path d="M14.3599 16.1402L14.355 16.1597C14.2126 16.7502 13.7305 17.0483 12.9604 17.0484C12.1893 17.0484 11.7067 16.7422 11.5649 16.1382L11.5601 16.1196V13.688H14.3599V16.1402ZM11.896 16.0796C12.0034 16.5033 12.3417 16.7124 12.9604 16.7124C13.5791 16.7123 13.9168 16.5089 14.0239 16.0991V14.0239H11.896V16.0796Z" fill="#FFC034"/>
<path d="M13.0759 14.8871L13.8875 14.0043L14.0525 14.1556L13.2205 15.0609H14.1511V15.3969H13.2029L14.0525 16.3217L13.8875 16.473L13.0759 15.5892V16.7719H12.8425V15.472L11.9226 16.473L11.7576 16.3217L12.6062 15.3969H11.8357V15.0609H12.5906L11.7576 14.1556L11.9226 14.0043L12.8425 15.0043V13.8929H13.0759V14.8871Z" fill="#FFC034"/>
<path fill-rule="evenodd" clip-rule="evenodd" d="M13.4828 17.4427C13.4828 17.4427 11.1106 17.6292 11.1106 16.0992C11.1106 16.0992 11.088 17.4427 8.61096 17.4427V18.6505H13.4828V17.4427Z" fill="#F1F9FF"/>
<path fill-rule="evenodd" clip-rule="evenodd" d="M11.1121 14.192C11.576 14.192 11.9521 13.7908 11.9521 13.296C11.9521 12.8012 11.576 12.4 11.1121 12.4C10.6482 12.4 10.2721 12.8012 10.2721 13.296C10.2721 13.7908 10.6482 14.192 11.1121 14.192Z" fill="#005BBF" stroke="#AD1619" stroke-width="1.16667"/>
</g>
</g>
</g>
<defs>
<clipPath id="clip0_1670_1519">
<rect width="32" height="24" fill="white"/>
</clipPath>
</defs>
</svg>
